<svg width="45" height="30" viewBox="0 0 45 30" fill="none" xmlns="http://www.w3.org/2000/svg">
<path d="M41.2504 0H3.75C1.6875 0 0 1.6875 0 3.75V26.25C0 28.3125 1.6875 30 3.75 30H41.2504C43.3122 30 45.0004 28.3125 45.0004 26.25V3.75C45.0004 1.6875 43.3122 0 41.2504 0Z" fill="white"/>
<path fill-rule="evenodd" clip-rule="evenodd" d="M13.9586 8.99951C14.0336 9.59223 13.7859 10.1925 13.4333 10.6426C13.0582 11.0928 12.488 11.4154 11.8878 11.3404C11.8128 10.7702 12.1128 10.1474 12.4354 9.7723C12.8105 9.35213 13.4333 9.02201 13.9586 8.99951ZM12.5915 11.7897C12.9698 11.642 13.4404 11.4584 13.9586 11.4905V11.498C14.2812 11.5205 15.234 11.618 15.8043 12.5183C15.7593 12.5408 14.6864 13.1636 14.7089 14.4616C14.7089 15.8826 15.8505 16.4221 16.0519 16.5173C16.0696 16.5256 16.0818 16.5324 16.0818 16.5324C16.0818 16.5624 15.8793 17.2602 15.3841 17.9805C14.9639 18.6256 14.5137 19.2259 13.8159 19.2484C13.4696 19.2596 13.2398 19.1616 13.0016 19.0602C12.7598 18.9572 12.5096 18.8507 12.1204 18.8507C11.7083 18.8507 11.4435 18.9638 11.1882 19.0727C10.9646 19.1681 10.7484 19.2604 10.4472 19.2709C9.77195 19.2934 9.24681 18.5956 8.82654 17.973C7.93377 16.6974 7.28099 14.3791 8.1814 12.8109C8.62403 12.0081 9.42681 11.5355 10.2971 11.513C10.6792 11.513 11.0445 11.6571 11.3617 11.7822C11.6051 11.8783 11.8201 11.9631 11.9928 11.9631C12.1474 11.9631 12.3509 11.8837 12.5915 11.7897ZM24.4024 12.8108C24.4024 10.9877 23.1345 9.71968 21.2888 9.71968H17.7474V19.1432H19.218V15.9245H21.2363C23.1045 15.9245 24.4024 14.634 24.4024 12.8108ZM20.8912 14.7016H19.218H19.1955V10.9651H20.8912C22.1666 10.9651 22.8869 11.6629 22.8869 12.8333C22.8869 14.0038 22.1591 14.7016 20.8912 14.7016ZM27.344 15.1817C25.7004 15.2792 24.7775 16.0295 24.7775 17.2226C24.7775 18.4455 25.7229 19.2932 27.119 19.2932C28.019 19.2932 28.889 18.8206 29.2872 18.0478H29.309V19.1657H30.6522V14.4315C30.6522 13.0359 29.609 12.1656 27.914 12.1656C26.2181 12.1656 25.1452 13.0884 25.0702 14.334H26.4127C26.5409 13.7337 27.014 13.336 27.8609 13.336C28.709 13.336 29.234 13.7862 29.234 14.559V15.0842L27.344 15.1817ZM29.2422 16.052V16.5998C29.2422 17.4926 28.469 18.1678 27.4708 18.1678C26.7208 18.1678 26.2256 17.7702 26.2256 17.1699C26.2256 16.5698 26.6977 16.2021 27.5458 16.1496L29.2422 16.052ZM31.9054 20.5613V21.7092L31.9204 21.7017C31.9845 21.7179 32.1168 21.7253 32.2409 21.7322C32.3458 21.7382 32.4454 21.7438 32.4904 21.7542C33.9154 21.7542 34.5836 21.2366 35.1836 19.5634L37.7499 12.3081H36.2568L34.5086 17.9128H34.4868L32.7386 12.3081H31.2154L33.7054 19.1882C33.7054 19.1882 33.5786 19.5859 33.5786 19.6084C33.3536 20.3061 33.0004 20.5838 32.3554 20.5838C32.2586 20.5838 32.0022 20.5838 31.9054 20.5613Z" fill="#040404"/>
</svg>
