<svg width="51" height="50" viewBox="0 0 51 50" fill="none" xmlns="http://www.w3.org/2000/svg">
<path d="M26.9954 8.33325C26.9954 7.50482 26.3239 6.83325 25.4954 6.83325C24.667 6.83325 23.9954 7.50482 23.9954 8.33325L26.9954 8.33325ZM23.9954 41.6666C23.9954 42.495 24.667 43.1666 25.4954 43.1666C26.3239 43.1666 26.9954 42.495 26.9954 41.6666L23.9954 41.6666ZM36.9775 34.3892C37.5607 33.8008 37.5564 32.851 36.968 32.2679C36.3796 31.6847 35.4299 31.6889 34.8467 32.2773L36.9775 34.3892ZM32.2719 37.0061L31.2065 35.9502L31.2065 35.9502L32.2719 37.0061ZM18.719 37.0061L17.6536 38.062L17.6536 38.062L18.719 37.0061ZM16.1442 32.2773C15.561 31.6889 14.6113 31.6847 14.0229 32.2679C13.4345 32.851 13.4302 33.8008 14.0134 34.3892L16.1442 32.2773ZM26.1482 41.6252L26.3379 43.1131L26.3379 43.1131L26.1482 41.6252ZM24.8427 41.6252L24.653 43.1131L24.653 43.1131L24.8427 41.6252ZM23.9954 8.33325L23.9954 41.6666L26.9954 41.6666L26.9954 8.33325L23.9954 8.33325ZM34.8467 32.2773L31.2065 35.9502L33.3373 38.062L36.9775 34.3892L34.8467 32.2773ZM19.7844 35.9502L16.1442 32.2773L14.0134 34.3892L17.6536 38.062L19.7844 35.9502ZM31.2065 35.9502C29.7302 37.4398 28.7105 38.4653 27.8456 39.1599C27.0043 39.8355 26.4561 40.0738 25.9586 40.1372L26.3379 43.1131C27.6095 42.951 28.6716 42.3443 29.7241 41.499C30.753 40.6727 31.9106 39.5015 33.3373 38.062L31.2065 35.9502ZM17.6536 38.062C19.0803 39.5015 20.2379 40.6727 21.2668 41.499C22.3193 42.3443 23.3814 42.951 24.653 43.1131L25.0323 40.1372C24.5348 40.0738 23.9865 39.8355 23.1453 39.1599C22.2803 38.4653 21.2607 37.4398 19.7844 35.9502L17.6536 38.062ZM25.9586 40.1372C25.651 40.1764 25.3399 40.1764 25.0323 40.1372L24.653 43.1131C25.2124 43.1844 25.7785 43.1844 26.3379 43.1131L25.9586 40.1372Z" fill="#333333"/>
</svg>
