<svg width="253" height="253" viewBox="0 0 253 253" fill="none" xmlns="http://www.w3.org/2000/svg">
<path d="M250.208 126.354C250.208 194.757 194.757 250.208 126.354 250.208C57.9513 250.208 2.5 194.757 2.5 126.354C2.5 57.9513 57.9513 2.5 126.354 2.5C194.757 2.5 250.208 57.9513 250.208 126.354Z" fill="white" stroke="url(#paint0_linear_3088_2727)" stroke-width="5"/>
<g filter="url(#filter0_i_3088_2727)">
<path d="M235.281 126.43C235.281 186.658 186.557 235.449 126.493 235.449C66.4295 235.449 17.7051 186.658 17.7051 126.43C17.7051 66.2015 66.4295 17.4102 126.493 17.4102C186.557 17.4102 235.281 66.2015 235.281 126.43Z" stroke="white" stroke-width="20"/>
</g>
<path d="M235.75 126.354C235.75 186.771 186.772 235.749 126.355 235.749C65.9384 235.749 16.9609 186.771 16.9609 126.354C16.9609 65.9375 65.9384 16.96 126.355 16.96C186.772 16.96 235.75 65.9375 235.75 126.354Z" stroke="url(#paint1_linear_3088_2727)" stroke-width="5"/>
<defs>
<filter id="filter0_i_3088_2727" x="7.70508" y="7.41016" width="237.576" height="243.039" filterUnits="userSpaceOnUse" color-interpolation-filters="sRGB">
<feFlood flood-opacity="0" result="BackgroundImageFix"/>
<feBlend mode="normal" in="SourceGraphic" in2="BackgroundImageFix" result="shape"/>
<feColorMatrix in="SourceAlpha" type="matrix" values="0 0 0 0 0 0 0 0 0 0 0 0 0 0 0 0 0 0 127 0" result="hardAlpha"/>
<feOffset dy="5"/>
<feGaussianBlur stdDeviation="10"/>
<feComposite in2="hardAlpha" operator="arithmetic" k2="-1" k3="1"/>
<feColorMatrix type="matrix" values="0 0 0 0 0 0 0 0 0 0 0 0 0 0 0 0 0 0 0.1 0"/>
<feBlend mode="normal" in2="shape" result="effect1_innerShadow_3088_2727"/>
</filter>
<linearGradient id="paint0_linear_3088_2727" x1="36.2028" y1="36.2028" x2="227.644" y2="227.646" gradientUnits="userSpaceOnUse">
<stop stop-color="#FFFB90"/>
<stop offset="0.14" stop-color="#FBE978"/>
<stop offset="0.24" stop-color="#F8DC65"/>
<stop offset="0.27" stop-color="#E6C758"/>
<stop offset="0.34" stop-color="#C49F40"/>
<stop offset="0.4" stop-color="#AC832F"/>
<stop offset="0.45" stop-color="#9E7225"/>
<stop offset="0.49" stop-color="#996C22"/>
<stop offset="0.52" stop-color="#9D7125"/>
<stop offset="0.56" stop-color="#A98030"/>
<stop offset="0.6" stop-color="#BD9A42"/>
<stop offset="0.64" stop-color="#D9BE5A"/>
<stop offset="0.69" stop-color="#FBE878"/>
<stop offset="0.77" stop-color="#FFFFAA"/>
<stop offset="0.83" stop-color="#FBE878"/>
<stop offset="1" stop-color="#A4631B"/>
</linearGradient>
<linearGradient id="paint1_linear_3088_2727" x1="46.5208" y1="46.5198" x2="216.054" y2="216.054" gradientUnits="userSpaceOnUse">
<stop stop-color="#FFFB90"/>
<stop offset="0.14" stop-color="#FBE978"/>
<stop offset="0.24" stop-color="#F8DC65"/>
<stop offset="0.27" stop-color="#E6C758"/>
<stop offset="0.34" stop-color="#C49F40"/>
<stop offset="0.4" stop-color="#AC832F"/>
<stop offset="0.45" stop-color="#9E7225"/>
<stop offset="0.49" stop-color="#996C22"/>
<stop offset="0.52" stop-color="#9D7125"/>
<stop offset="0.56" stop-color="#A98030"/>
<stop offset="0.6" stop-color="#BD9A42"/>
<stop offset="0.64" stop-color="#D9BE5A"/>
<stop offset="0.69" stop-color="#FBE878"/>
<stop offset="0.77" stop-color="#FFFFAA"/>
<stop offset="0.83" stop-color="#FBE878"/>
<stop offset="1" stop-color="#A4631B"/>
</linearGradient>
</defs>
</svg>
