<svg width="45" height="30" viewBox="0 0 45 30" fill="none" xmlns="http://www.w3.org/2000/svg">
<path d="M41.25 0H3.75C1.68818 0 0 1.6875 0 3.75V26.25C0 28.3125 1.68818 30 3.75 30H41.25C43.3132 30 45 28.3125 45 26.25V3.75C45 1.6875 43.3132 0 41.25 0Z" fill="white"/>
<path d="M21.5063 15.2759V19.5325H20.1465V9.02048H23.7529C24.1834 9.01155 24.6114 9.08737 25.0122 9.24357C25.413 9.39976 25.7787 9.63324 26.0882 9.93053C26.4008 10.2098 26.6496 10.5522 26.8179 10.9349C26.9861 11.3175 27.07 11.7315 27.0637 12.149C27.0727 12.5688 26.9901 12.9855 26.8218 13.3705C26.6534 13.7556 26.4032 14.1 26.0882 14.3801C25.4576 14.9773 24.6792 15.2756 23.7529 15.275H21.5063V15.2759ZM21.5063 10.3147V13.9842H23.7867C24.0367 13.9916 24.2855 13.947 24.5172 13.8534C24.7488 13.7599 24.9583 13.6193 25.1321 13.4407C25.3051 13.2737 25.4425 13.074 25.5364 12.8534C25.6303 12.6328 25.6786 12.3957 25.6786 12.1562C25.6786 11.9166 25.6303 11.6795 25.5364 11.4589C25.4425 11.2383 25.3051 11.0386 25.1321 10.8716C24.9605 10.6893 24.7517 10.5452 24.5198 10.4491C24.2878 10.3529 24.038 10.3068 23.7867 10.3138H21.5063V10.3147Z" fill="#5F6368"/>
<path d="M30.1966 12.1064C31.2017 12.1064 31.995 12.3732 32.5767 12.9066C33.1583 13.4401 33.4488 14.1715 33.4483 15.1008V19.5336H32.1476V18.5355H32.0885C31.5254 19.3574 30.7765 19.7684 29.8419 19.7684C29.044 19.7684 28.3765 19.5336 27.8393 19.0639C27.5815 18.8483 27.3754 18.5783 27.236 18.2736C27.0967 17.9689 27.0275 17.6371 27.0336 17.3025C27.0336 16.5583 27.3168 15.9664 27.8832 15.5269C28.4497 15.0874 29.2059 14.8671 30.1518 14.8659C30.9593 14.8659 31.6242 15.0127 32.1468 15.3063V14.9976C32.1483 14.7695 32.0987 14.5439 32.0016 14.3372C31.9044 14.1304 31.7622 13.9478 31.5851 13.8024C31.2255 13.4802 30.7569 13.3044 30.2726 13.3101C29.513 13.3101 28.912 13.6282 28.4694 14.2646L27.2718 13.5155C27.9305 12.5761 28.9055 12.1064 30.1966 12.1064ZM28.4373 17.3319C28.4364 17.5037 28.4768 17.6733 28.5553 17.8265C28.6337 17.9797 28.7479 18.1121 28.8883 18.2126C29.189 18.4475 29.5623 18.5719 29.9449 18.5648C30.5187 18.5639 31.0687 18.3371 31.4745 17.9341C31.9249 17.513 32.1501 17.019 32.1501 16.452C31.7262 16.1165 31.1349 15.9488 30.3765 15.9488C29.8241 15.9488 29.3635 16.081 28.9947 16.3455C28.6223 16.6139 28.4373 16.9402 28.4373 17.3319Z" fill="#5F6368"/>
<path d="M40.9149 12.3408L36.3743 22.7036H34.9706L36.6556 19.0777L33.6699 12.3408H35.148L37.3059 17.5075H37.3355L39.4343 12.3408H40.9149Z" fill="#5F6368"/>
<path d="M16.0104 14.3598C16.0109 13.9482 15.9759 13.5374 15.9057 13.1318H10.1709V15.4577H13.4555C13.3883 15.8292 13.2461 16.1833 13.0373 16.4987C12.8286 16.8141 12.5577 17.0842 12.241 17.2929V18.8026H14.2013C15.3491 17.7517 16.0104 16.1975 16.0104 14.3598Z" fill="#4285F4"/>
<path d="M10.1716 20.2604C11.8126 20.2604 13.1944 19.7253 14.202 18.8027L12.2417 17.2929C11.6961 17.6603 10.9934 17.87 10.1716 17.87C8.58542 17.87 7.23913 16.8081 6.75771 15.3772H4.73828V16.9331C5.24442 17.9333 6.02053 18.7741 6.97996 19.3616C7.93939 19.9492 9.04438 20.2604 10.1716 20.2604Z" fill="#34A853"/>
<path d="M6.75778 15.3775C6.50327 14.6277 6.50327 13.8157 6.75778 13.0659V11.51H4.73835C4.31257 12.3514 4.09082 13.28 4.09082 14.2217C4.09082 15.1634 4.31257 16.092 4.73835 16.9334L6.75778 15.3775Z" fill="#FBBC04"/>
<path d="M10.1716 10.573C11.0388 10.5589 11.8768 10.8843 12.5043 11.4788L14.24 9.75518C13.1394 8.72862 11.6814 8.16501 10.1716 8.18253C9.04438 8.18258 7.93939 8.49375 6.97996 9.0813C6.02053 9.66885 5.24442 10.5097 4.73828 11.5099L6.75771 13.0657C7.23913 11.6348 8.58542 10.573 10.1716 10.573Z" fill="#EA4335"/>
</svg>
