<svg width="43" height="43" viewBox="0 0 43 43" fill="none" xmlns="http://www.w3.org/2000/svg">
<rect width="43" height="43" rx="6" transform="matrix(1 0 0 -1 0 43)" fill="white"/>
<path d="M21.5 25.0938C23.4848 25.0938 25.0938 23.4848 25.0938 21.5C25.0938 19.5152 23.4848 17.9062 21.5 17.9062C19.5152 17.9062 17.9062 19.5152 17.9062 21.5C17.9062 23.4848 19.5152 25.0938 21.5 25.0938Z" stroke="black" stroke-linecap="round" stroke-linejoin="round"/>
<path d="M25.4531 13.2344H17.5469C15.1651 13.2344 13.2344 15.1651 13.2344 17.5469V25.4531C13.2344 27.8349 15.1651 29.7656 17.5469 29.7656H25.4531C27.8349 29.7656 29.7656 27.8349 29.7656 25.4531V17.5469C29.7656 15.1651 27.8349 13.2344 25.4531 13.2344Z" stroke="black" stroke-linecap="round" stroke-linejoin="round"/>
<path d="M26.1719 17.5469C26.5688 17.5469 26.8906 17.2251 26.8906 16.8281C26.8906 16.4312 26.5688 16.1094 26.1719 16.1094C25.7749 16.1094 25.4531 16.4312 25.4531 16.8281C25.4531 17.2251 25.7749 17.5469 26.1719 17.5469Z" fill="black"/>
</svg>
