<svg width="45" height="30" viewBox="0 0 45 30" fill="none" xmlns="http://www.w3.org/2000/svg">
<path d="M41.8636 0H3.13636C1.4042 0 0 1.4042 0 3.13636V26.8636C0 28.5958 1.4042 30 3.13636 30H41.8636C43.5958 30 45 28.5958 45 26.8636V3.13636C45 1.4042 43.5958 0 41.8636 0Z" fill="white"/>
<path d="M23.3337 8.33374H11.667V21.6671H23.3337V8.33374Z" fill="white"/>
<path d="M35.0007 8.33374H23.334V21.6671H35.0007V8.33374Z" fill="white"/>
<path d="M23.3333 19.9995C25.1743 19.9995 26.6667 17.7609 26.6667 14.9995C26.6667 12.2381 25.1743 9.99951 23.3333 9.99951C21.4924 9.99951 20 12.2381 20 14.9995C20 17.7609 21.4924 19.9995 23.3333 19.9995Z" fill="white"/>
<path d="M42.2732 14.5907C42.2732 21.1005 36.9802 26.4543 30.4095 26.4543C23.8997 26.4543 18.5459 21.1005 18.5459 14.5907C18.5459 8.0809 23.8389 2.72705 30.3487 2.72705C36.9802 2.72705 42.2732 8.0809 42.2732 14.5907Z" fill="#F9B50B"/>
<path d="M26.394 14.6515C26.394 13.7998 26.2723 12.948 26.1506 12.1571H18.8499C18.9108 11.7312 19.0324 11.3662 19.1541 10.8795H25.6639C25.5422 10.4536 25.3597 10.0278 25.1772 9.60188H19.6408C19.8233 9.176 20.0667 8.81097 20.3101 8.32425H24.508C24.2646 7.89838 23.9604 7.47251 23.5954 7.04663H21.2835C21.6485 6.62076 22.0136 6.25572 22.5003 5.82985C20.4317 3.88299 17.6331 2.72705 14.5303 2.72705C8.08138 2.90957 2.72754 8.0809 2.72754 14.5907C2.72754 21.1005 8.02055 26.4543 14.5912 26.4543C17.694 26.4543 20.4317 25.2375 22.5611 23.3515C22.987 22.9865 23.352 22.5606 23.7779 22.0739H21.3443C21.0401 21.7089 20.7359 21.283 20.4926 20.8571H24.6296C24.873 20.4921 25.1163 20.0662 25.2989 19.5795H19.7625C19.58 19.2145 19.3975 18.7886 19.2758 18.3019H25.7856C26.1506 17.2068 26.394 15.99 26.394 14.6515Z" fill="#C8191C"/>
<path d="M18.789 17.633L18.9716 16.5379C18.9107 16.5379 18.789 16.5988 18.6674 16.5988C18.2415 16.5988 18.1807 16.3554 18.2415 16.2337L18.6065 14.0435H19.2758L19.4583 12.8268H18.8499L18.9716 12.0967H17.6939C17.6939 12.0967 16.9639 16.2337 16.9639 16.7205C16.9639 17.4505 17.3897 17.8156 17.9981 17.8156C18.3632 17.8156 18.6674 17.6939 18.789 17.633Z" fill="white"/>
<path d="M19.2148 15.6248C19.2148 17.3892 20.4316 17.815 21.4051 17.815C22.3176 17.815 22.7435 17.6325 22.7435 17.6325L22.9869 16.4157C22.9869 16.4157 22.3176 16.7199 21.6484 16.7199C20.2491 16.7199 20.4925 15.6857 20.4925 15.6857H23.0477C23.0477 15.6857 23.2302 14.8948 23.2302 14.5297C23.2302 13.7388 22.8044 12.7045 21.4051 12.7045C20.1883 12.6437 19.2148 14.043 19.2148 15.6248ZM21.4051 13.7997C22.0743 13.7997 21.9526 14.5906 21.9526 14.6514H20.5533C20.6141 14.5906 20.7358 13.7997 21.4051 13.7997Z" fill="white"/>
<path d="M29.3751 17.6328L29.6184 16.2335C29.6184 16.2335 29.01 16.5377 28.5233 16.5377C27.6716 16.5377 27.2457 15.8685 27.2457 15.0775C27.2457 13.5566 27.9758 12.7657 28.8883 12.7657C29.4967 12.7657 30.0443 13.1307 30.0443 13.1307L30.2268 11.7922C30.2268 11.7922 29.4967 11.488 28.7667 11.488C27.3065 11.488 25.9072 12.7657 25.9072 15.1384C25.9072 16.7202 26.6373 17.7545 28.1583 17.7545C28.7058 17.8153 29.3751 17.6328 29.3751 17.6328Z" fill="white"/>
<path d="M11.9147 12.644C11.063 12.644 10.3937 12.8874 10.3937 12.8874L10.2112 13.9825C10.2112 13.9825 10.7588 13.7391 11.6105 13.7391C12.0364 13.7391 12.4014 13.8 12.4014 14.165C12.4014 14.4084 12.3406 14.4692 12.3406 14.4692H11.793C10.6979 14.4692 9.54199 14.8951 9.54199 16.3552C9.54199 17.5112 10.2721 17.7545 10.7588 17.7545C11.6105 17.7545 12.0364 17.207 12.0972 17.207L12.0364 17.6937H13.0707L13.5574 14.2259C13.5574 12.7049 12.3406 12.644 11.9147 12.644ZM12.1581 15.4426C12.1581 15.6252 12.0364 16.6594 11.3063 16.6594C10.9413 16.6594 10.8196 16.3552 10.8196 16.1727C10.8196 15.8685 11.0021 15.4426 11.9756 15.4426C12.0972 15.4426 12.1581 15.4426 12.1581 15.4426Z" fill="white"/>
<path d="M14.7729 17.7541C15.0771 17.7541 16.6589 17.8149 16.6589 16.1114C16.6589 14.5296 15.138 14.8338 15.138 14.2254C15.138 13.9212 15.3813 13.7995 15.8072 13.7995C15.9897 13.7995 16.6589 13.8604 16.6589 13.8604L16.8415 12.7044C16.8415 12.7044 16.4156 12.5828 15.6247 12.5828C14.7121 12.5828 13.7387 12.9478 13.7387 14.2254C13.7387 15.6856 15.3205 15.5639 15.3205 16.1114C15.3205 16.4765 14.8946 16.5373 14.5904 16.5373C14.0429 16.5373 13.4345 16.3548 13.4345 16.3548L13.252 17.5107C13.3736 17.6324 13.7387 17.7541 14.7729 17.7541Z" fill="white"/>
<path d="M39.8395 11.6707L39.5962 13.3742C39.5962 13.3742 39.1094 12.7658 38.3794 12.7658C37.2234 12.7658 36.25 14.1651 36.25 15.8077C36.25 16.842 36.7367 17.8762 37.8318 17.8762C38.5619 17.8762 39.0486 17.3895 39.0486 17.3895L38.9878 17.8154H40.2654L41.178 11.7923L39.8395 11.6707ZM39.2311 14.956C39.2311 15.6252 38.9269 16.5378 38.1969 16.5378C37.771 16.5378 37.5276 16.1728 37.5276 15.5035C37.5276 14.4693 37.9535 13.8609 38.5619 13.8609C38.9878 13.9217 39.2311 14.2259 39.2311 14.956Z" fill="white"/>
<path d="M5.04003 17.6937L5.7701 13.1916L5.89177 17.6937H6.74352L8.38618 13.1916L7.71695 17.6937H9.05541L10.0897 11.6707H8.02114L6.74352 15.3818L6.68268 11.6707H4.85751L3.82324 17.6937H5.04003Z" fill="white"/>
<path d="M24.5077 17.6931C24.8727 15.6246 24.9336 13.9211 25.8462 14.2253C25.9678 13.4344 26.1504 13.0693 26.272 12.7651H26.0287C25.4811 12.7651 24.9944 13.4952 24.9944 13.4952L25.1161 12.826H23.8993L23.1084 17.6931H24.5077Z" fill="white"/>
<path d="M32.2956 12.644C31.4438 12.644 30.7746 12.8874 30.7746 12.8874L30.5921 13.9825C30.5921 13.9825 31.1396 13.7391 31.9914 13.7391C32.4173 13.7391 32.7823 13.8 32.7823 14.165C32.7823 14.4084 32.7215 14.4692 32.7215 14.4692H32.1739C31.0788 14.4692 29.9229 14.8951 29.9229 16.3552C29.9229 17.5112 30.6529 17.7545 31.1396 17.7545C31.9914 17.7545 32.4173 17.207 32.4781 17.207L32.4173 17.6937H33.5732L34.0599 14.2259C34.0599 12.7049 32.7215 12.644 32.2956 12.644ZM32.5998 15.4426C32.5998 15.6252 32.4781 16.6594 31.748 16.6594C31.383 16.6594 31.2613 16.3552 31.2613 16.1727C31.2613 15.8685 31.4438 15.4426 32.4173 15.4426C32.5389 15.4426 32.5389 15.4426 32.5998 15.4426Z" fill="white"/>
<path d="M35.0331 17.6931C35.3981 15.6246 35.459 13.9211 36.3716 14.2253C36.4932 13.4344 36.6757 13.0693 36.7974 12.7651H36.5541C36.0065 12.7651 35.5198 13.4952 35.5198 13.4952L35.6415 12.826H34.4247L33.6338 17.6931H35.0331Z" fill="white"/>
</svg>
