<svg xmlns="http://www.w3.org/2000/svg" width="72" height="48" viewBox="0 0 72 48" fill="none">
<path d="M65.887 0H5.98973C2.69538 0 0 2.69538 0 5.98973V41.9281C0 45.2224 2.69538 47.9178 5.98973 47.9178H65.887C69.1813 47.9178 71.8767 45.2224 71.8767 41.9281V5.98973C71.8767 2.69538 69.1813 0 65.887 0Z" fill="white"/>
<g clip-path="url(#clip0_3059_23029)">
<path d="M19.5062 15.8363C18.8968 16.5794 17.9218 17.1656 16.9468 17.0818C16.8249 16.0771 17.3022 15.0095 17.8608 14.3501C18.4702 13.5861 19.5366 13.0419 20.3999 13C20.5015 14.0466 20.1054 15.0723 19.5062 15.8363ZM20.3897 17.2807C18.978 17.197 17.7694 18.1075 17.0991 18.1075C16.4187 18.1075 15.3929 17.3225 14.2757 17.3435C12.8233 17.3644 11.4726 18.2122 10.7312 19.5623C9.20771 22.2626 10.3351 26.2607 11.8077 28.4586C12.5288 29.5471 13.3921 30.7402 14.5296 30.6984C15.6062 30.6565 16.0327 29.9762 17.3327 29.9762C18.6429 29.9762 19.0187 30.6984 20.1562 30.6774C21.3343 30.6565 22.0757 29.589 22.7968 28.5005C23.6194 27.2655 23.9546 26.0618 23.9749 25.999C23.9546 25.9781 21.6999 25.0885 21.6796 22.4091C21.6593 20.1694 23.4569 19.1018 23.5382 19.039C22.5226 17.49 20.9382 17.3226 20.3897 17.2807ZM28.5452 14.2455V30.5623H31.003V24.9838H34.4054C37.5132 24.9838 39.6968 22.7859 39.6968 19.6042C39.6968 16.4225 37.5538 14.2455 34.4866 14.2455H28.5452ZM31.003 16.3806H33.8366C35.9694 16.3806 37.1882 17.5528 37.1882 19.6147C37.1882 21.6765 35.9694 22.8592 33.8265 22.8592H31.003V16.3806ZM44.1858 30.6879C45.7296 30.6879 47.1616 29.882 47.8116 28.6051H47.8624V30.5623H50.1374V22.4405C50.1374 20.0856 48.3093 18.568 45.496 18.568C42.8858 18.568 40.9562 20.1066 40.8851 22.2207H43.0991C43.2819 21.216 44.1858 20.5566 45.4249 20.5566C46.928 20.5566 47.771 21.2788 47.771 22.608V23.5081L44.7038 23.6965C41.8499 23.8744 40.3062 25.078 40.3062 27.1713C40.3062 29.2854 41.9007 30.6879 44.1858 30.6879ZM44.846 28.7517C43.5358 28.7517 42.703 28.1028 42.703 27.1085C42.703 26.0828 43.5054 25.4862 45.039 25.392L47.771 25.2141V26.1351C47.771 27.6632 46.5116 28.7517 44.846 28.7517ZM53.1741 35C55.571 35 56.6983 34.058 57.6835 31.2008L61.9999 18.725H59.5015L56.6069 28.3644H56.5562L53.6616 18.725H51.0921L55.2562 30.6042L55.0327 31.3264C54.6569 32.5509 54.0476 33.0219 52.9608 33.0219C52.7679 33.0219 52.3921 33.001 52.2397 32.98V34.9372C52.3819 34.9791 52.9913 35 53.1741 35Z" fill="black"/>
</g>
<defs>
<clipPath id="clip0_3059_23029">
<rect width="52" height="22" fill="white" transform="translate(10 13)"/>
</clipPath>
</defs>
</svg>