<svg width="43" height="43" viewBox="0 0 43 43" fill="none" xmlns="http://www.w3.org/2000/svg">
<rect width="43" height="43" rx="6" transform="matrix(1 0 0 -1 0 43)" fill="white"/>
<path d="M17.9064 22.1172L25.9849 29.2263C26.0784 29.3085 26.1916 29.3651 26.3135 29.3904C26.4354 29.4158 26.5618 29.409 26.6803 29.3708C26.7988 29.3326 26.9054 29.2642 26.9895 29.1725C27.0736 29.0807 27.1325 28.9686 27.1603 28.8473L30.5397 14.101C30.5689 13.9735 30.5628 13.8404 30.522 13.7162C30.4811 13.5919 30.4072 13.4811 30.3081 13.3958C30.2089 13.3104 30.0884 13.2537 29.9595 13.2318C29.8305 13.2099 29.698 13.2236 29.5763 13.2715L12.995 19.7855C12.8505 19.8423 12.7282 19.9443 12.6466 20.0764C12.5649 20.2084 12.5282 20.3634 12.5419 20.518C12.5556 20.6727 12.619 20.8187 12.7227 20.9343C12.8263 21.0499 12.9646 21.1288 13.1169 21.1593L17.9064 22.1172Z" stroke="black" stroke-linecap="round" stroke-linejoin="round"/>
<path d="M17.9062 22.1171L30.1351 13.2852" stroke="black" stroke-linecap="round" stroke-linejoin="round"/>
<path d="M21.9409 25.6677L19.1332 28.4753C19.0327 28.5758 18.9046 28.6443 18.7652 28.672C18.6258 28.6997 18.4813 28.6855 18.3499 28.6311C18.2186 28.5767 18.1064 28.4846 18.0274 28.3664C17.9484 28.2482 17.9063 28.1092 17.9062 27.9671V22.1172" stroke="black" stroke-linecap="round" stroke-linejoin="round"/>
</svg>
