<svg width="45" height="30" viewBox="0 0 45 30" fill="none" xmlns="http://www.w3.org/2000/svg">
<path d="M37.9999 4.00024H7V25.0002H37.9999V4.00024Z" fill="#1235CB"/>
<path d="M41.25 0H3.75C1.6875 0 0 1.6875 0 3.75V26.25C0 28.3125 1.6875 30 3.75 30H41.25C43.3125 30 45 28.3125 45 26.25V3.75C45 1.6875 43.3125 0 41.25 0ZM13.125 19.35L11.25 12.4313C11.2125 12.1125 11.025 11.8125 10.725 11.6625C10.05 11.3438 9.35631 11.1 8.625 10.9312V10.6687H12.375C12.8813 10.6687 13.3313 11.0438 13.4063 11.55L14.3625 16.575L16.875 10.6687H19.2375L15.525 19.35H13.125ZM18.225 19.35L20.1 10.6687H22.35L20.475 19.35H18.225ZM24.5063 19.4813C23.6625 19.4813 22.8 19.3125 22.0125 19.0125L22.425 17.1375C23.1375 17.5125 23.925 17.7 24.7313 17.6813C25.3688 17.6813 26.0625 17.4188 26.0625 16.8375C26.0625 16.2563 25.7813 16.1813 24.9 15.7688C24.0188 15.3563 22.9313 14.6438 22.9313 13.4062C22.9313 11.7188 24.5063 10.5375 26.6813 10.5375C27.3938 10.5375 28.0875 10.6687 28.7625 10.9125L28.3688 12.7875C27.7125 12.4688 26.9813 12.3187 26.25 12.3562C25.6125 12.3562 25.3125 12.7688 25.3125 13.0875C25.3125 14.1 28.4625 14.2313 28.4438 16.5188C28.4438 18.3188 26.9063 19.4813 24.5438 19.4813H24.5063ZM34.275 19.35L33.9938 18.0563H31.1625L30.6938 19.35H28.3313L31.7063 11.25C31.875 10.8562 32.25 10.6125 32.6625 10.6125H34.5375L36.4125 19.2938L34.275 19.35ZM31.875 16.275H33.75L33.075 13.0125L31.875 16.275Z" fill="white"/>
</svg>
