<svg xmlns="http://www.w3.org/2000/svg" width="22" height="22" viewBox="0 0 22 22" fill="none">
<path d="M3.39645 20.2632L3.78832 19.6237L3.39645 20.2632ZM1.74574 18.6125L2.38522 18.2206H2.38522L1.74574 18.6125ZM20.2721 18.6125L19.6327 18.2206L20.2721 18.6125ZM18.6214 20.2632L18.2296 19.6237L18.6214 20.2632ZM18.6214 4.7368L18.2296 5.37628L18.6214 4.7368ZM20.2721 6.38751L19.6327 6.77938L20.2721 6.38751ZM3.39645 4.7368L3.78832 5.37628H3.78832L3.39645 4.7368ZM1.74574 6.38751L2.38522 6.77938H2.38522L1.74574 6.38751ZM17.4857 1.54645L18.027 1.02728V1.02728L17.4857 1.54645ZM2.85316 1.89079L3.306 2.48865V2.48865L2.85316 1.89079ZM1.86338 2.92267L2.4787 3.35148L1.86338 2.92267ZM18.0089 4.13032H18.7589L18.7589 4.12662L18.0089 4.13032ZM17.3726 12.6137C17.7868 12.6137 18.1226 12.2779 18.1226 11.8637C18.1226 11.4494 17.7868 11.1137 17.3726 11.1137V12.6137ZM14.6453 11.1137C14.2311 11.1137 13.8953 11.4494 13.8953 11.8637C13.8953 12.2779 14.2311 12.6137 14.6453 12.6137V11.1137ZM9.50894 4.75H12.5089V3.25H9.50894V4.75ZM12.5089 20.25H9.50894V21.75H12.5089V20.25ZM9.50894 20.25C7.8577 20.25 6.67194 20.2492 5.74703 20.1613C4.83327 20.0744 4.25185 19.9078 3.78832 19.6237L3.00457 20.9027C3.74339 21.3554 4.5815 21.5572 5.60505 21.6545C6.61743 21.7508 7.88675 21.75 9.50894 21.75V20.25ZM0.25894 12.5C0.25894 14.1222 0.258148 15.3915 0.354407 16.4039C0.451726 17.4274 0.653508 18.2655 1.10626 19.0044L2.38522 18.2206C2.10117 17.7571 1.93455 17.1757 1.84767 16.2619C1.75973 15.337 1.75894 14.1512 1.75894 12.5H0.25894ZM3.78832 19.6237C3.21646 19.2733 2.73566 18.7925 2.38522 18.2206L1.10626 19.0044C1.58038 19.7781 2.23088 20.4286 3.00457 20.9027L3.78832 19.6237ZM12.5089 21.75C14.1311 21.75 15.4004 21.7508 16.4128 21.6545C17.4364 21.5572 18.2745 21.3554 19.0133 20.9027L18.2296 19.6237C17.766 19.9078 17.1846 20.0744 16.2709 20.1613C15.3459 20.2492 14.1602 20.25 12.5089 20.25V21.75ZM19.6327 18.2206C19.2822 18.7925 18.8014 19.2733 18.2296 19.6237L19.0133 20.9027C19.787 20.4286 20.4375 19.7781 20.9116 19.0044L19.6327 18.2206ZM18.2296 5.37628C18.8014 5.72672 19.2822 6.20752 19.6327 6.77938L20.9116 5.99563C20.4375 5.22194 19.787 4.57144 19.0133 4.09732L18.2296 5.37628ZM9.50894 3.25C7.88675 3.25 6.61743 3.24921 5.60505 3.34547C4.5815 3.44279 3.74339 3.64457 3.00457 4.09732L3.78832 5.37628C4.25185 5.09223 4.83327 4.92561 5.74703 4.83873C6.67194 4.75079 7.8577 4.75 9.50894 4.75V3.25ZM1.75894 12.5C1.75894 10.8488 1.75973 9.663 1.84767 8.73809C1.93455 7.82434 2.10117 7.24291 2.38522 6.77938L1.10626 5.99563C0.653508 6.73445 0.451726 7.57256 0.354407 8.59611C0.258148 9.6085 0.25894 10.8778 0.25894 12.5H1.75894ZM3.00457 4.09732C2.23088 4.57144 1.58038 5.22194 1.10626 5.99563L2.38522 6.77938C2.73566 6.20752 3.21646 5.72672 3.78832 5.37628L3.00457 4.09732ZM9.06201 1.75H14.4307V0.25H9.06201V1.75ZM14.4307 1.75C15.2964 1.75 15.8671 1.75173 16.2903 1.81105C16.6886 1.86687 16.8435 1.96039 16.9445 2.06562L18.027 1.02728C17.6038 0.586062 17.0748 0.406351 16.4985 0.325567C15.947 0.248272 15.2523 0.25 14.4307 0.25V1.75ZM9.06201 0.25C7.40181 0.25 6.09388 0.248882 5.05622 0.366088C4.0026 0.485096 3.13863 0.733701 2.40031 1.29293L3.306 2.48865C3.74373 2.15709 4.30658 1.9603 5.22458 1.85661C6.15853 1.75112 7.367 1.75 9.06201 1.75V0.25ZM1.75894 9.39563C1.75894 7.63063 1.75989 6.36468 1.86173 5.38472C1.96229 4.41704 2.15443 3.81679 2.4787 3.35148L1.24806 2.49385C0.717889 3.25462 0.482809 4.14188 0.369763 5.22968C0.257991 6.3052 0.25894 7.6627 0.25894 9.39563H1.75894ZM2.40031 1.29293C1.957 1.62872 1.56838 2.03422 1.24806 2.49385L2.4787 3.35148C2.71028 3.01918 2.9897 2.72823 3.306 2.48865L2.40031 1.29293ZM18.7589 4.12662C18.7556 3.44995 18.7412 2.86358 18.6564 2.37747C18.5684 1.87228 18.3943 1.41025 18.027 1.02728L16.9445 2.06562C17.0378 2.16295 17.122 2.30988 17.1787 2.63506C17.2387 2.97932 17.2555 3.44473 17.2589 4.13403L18.7589 4.12662ZM0.25894 9.39563C0.25894 10.3713 0.238779 11.2642 0.259197 12.0202L1.75865 11.9798C1.73889 11.2482 1.75894 10.424 1.75894 9.39563H0.25894ZM20.5089 13.8409H14.6453V15.3409H20.5089V13.8409ZM11.168 11.8637C11.168 13.7841 12.7249 15.3409 14.6453 15.3409V13.8409C13.5533 13.8409 12.668 12.9557 12.668 11.8637H11.168ZM12.668 11.8637C12.668 10.7716 13.5533 9.88638 14.6453 9.88638V8.38638C12.7249 8.38638 11.168 9.94321 11.168 11.8637H12.668ZM17.3726 11.1137H14.6453V12.6137H17.3726V11.1137ZM12.5089 4.75C13.8936 4.75 14.9538 4.75032 15.8124 4.8033C16.6702 4.85623 17.2699 4.95942 17.7427 5.13895L18.2752 3.73667C17.5951 3.47839 16.8208 3.36267 15.9048 3.30615C14.9896 3.24968 13.8763 3.25 12.5089 3.25V4.75ZM17.7427 5.13895C17.9197 5.20619 18.08 5.2846 18.2296 5.37628L19.0133 4.09732C18.7799 3.95427 18.535 3.83534 18.2752 3.73667L17.7427 5.13895ZM17.2589 4.13032V4.43781H18.7589V4.13032H17.2589ZM14.6453 9.88638H20.9533V8.38638H14.6453V9.88638ZM21.7589 12.5C21.7589 11.1255 21.7593 10.0077 21.7019 9.08959L20.2048 9.18316C20.2586 10.0439 20.2589 11.108 20.2589 12.5H21.7589ZM21.7019 9.08959C21.6235 7.83476 21.4336 6.84749 20.9116 5.99563L19.6327 6.77938C19.9616 7.3161 20.1313 8.00707 20.2048 9.18316L21.7019 9.08959ZM20.2589 12.5C20.2589 13.2875 20.2589 13.9722 20.2489 14.5785L21.7486 14.6034C21.759 13.9821 21.7589 13.2839 21.7589 12.5H20.2589ZM20.2489 14.5785C20.2163 16.537 20.0724 17.5031 19.6327 18.2206L20.9116 19.0044C21.5918 17.8944 21.7166 16.5313 21.7486 14.6034L20.2489 14.5785ZM20.5089 15.3409H20.9988V13.8409H20.5089V15.3409Z" fill="#333333"/>
</svg>