<svg width="43" height="43" viewBox="0 0 43 43" fill="none" xmlns="http://www.w3.org/2000/svg">
<rect width="43" height="43" rx="6" transform="matrix(1 0 0 -1 0 43)" fill="white"/>
<path d="M14.0815 25.9018C13.0099 24.0953 12.6346 21.9598 13.0261 19.8962C13.4176 17.8327 14.549 15.983 16.2077 14.6945C17.8665 13.4061 19.9386 12.7675 22.0349 12.8987C24.1311 13.0299 26.1074 13.9218 27.5926 15.407C29.0778 16.8922 29.9698 18.8685 30.101 20.9647C30.2321 23.061 29.5936 25.1331 28.3051 26.7919C27.0167 28.4506 25.167 29.582 23.1034 29.9735C21.0399 30.365 18.9043 29.9898 17.0979 28.9182L17.0979 28.9181L14.119 29.7692C13.9957 29.8044 13.8653 29.806 13.7412 29.7739C13.6172 29.7417 13.5039 29.677 13.4133 29.5863C13.3227 29.4957 13.2579 29.3825 13.2258 29.2584C13.1936 29.1343 13.1952 29.0039 13.2304 28.8806L14.0816 25.9017L14.0815 25.9018Z" stroke="black" stroke-linecap="round" stroke-linejoin="round"/>
<path d="M23.6665 26.5312C22.7209 26.5326 21.7843 26.3473 20.9104 25.9861C20.0366 25.6248 19.2426 25.0947 18.5739 24.4261C17.9053 23.7574 17.3752 22.9634 17.0139 22.0896C16.6527 21.2157 16.4674 20.2791 16.4688 19.3335C16.4709 18.6679 16.7369 18.0304 17.2085 17.5607C17.6801 17.091 18.3188 16.8276 18.9844 16.8281V16.8281C19.0935 16.8281 19.2008 16.857 19.2952 16.9118C19.3896 16.9666 19.4679 17.0454 19.522 17.1401L20.5724 18.9783C20.6358 19.0891 20.6684 19.2149 20.6671 19.3425C20.6657 19.4702 20.6304 19.5952 20.5647 19.7047L19.7211 21.1106C20.1551 22.0737 20.9263 22.8449 21.8894 23.2789V23.2789L23.2953 22.4353C23.4048 22.3696 23.5298 22.3343 23.6575 22.3329C23.7851 22.3316 23.9109 22.3642 24.0217 22.4276L25.8599 23.478C25.9546 23.5321 26.0334 23.6104 26.0882 23.7048C26.143 23.7992 26.1719 23.9065 26.1719 24.0156V24.0156C26.17 24.6805 25.9057 25.3177 25.4366 25.7887C24.9674 26.2598 24.3313 26.5266 23.6665 26.5312V26.5312Z" stroke="black" stroke-linecap="round" stroke-linejoin="round"/>
</svg>
