<svg width="43" height="43" viewBox="0 0 43 43" fill="none" xmlns="http://www.w3.org/2000/svg">
<rect width="43" height="43" rx="6" transform="matrix(1 0 0 -1 0 43)" fill="white"/>
<path d="M24.375 21.5L20.0625 18.625V24.375L24.375 21.5Z" stroke="black" stroke-linecap="round" stroke-linejoin="round"/>
<path d="M12.1562 21.4996C12.1562 24.1729 12.4324 25.7415 12.6424 26.5476C12.6985 26.7678 12.8063 26.9714 12.9568 27.1416C13.1073 27.3119 13.2962 27.4438 13.5079 27.5264C16.5155 28.6822 21.5 28.6505 21.5 28.6505C21.5 28.6505 26.4844 28.6822 29.4921 27.5264C29.7038 27.4438 29.8927 27.3119 30.0432 27.1416C30.1937 26.9714 30.3015 26.7678 30.3576 26.5476C30.5675 25.7415 30.8438 24.173 30.8438 21.4996C30.8438 18.8263 30.5676 17.2577 30.3576 16.4516C30.3015 16.2314 30.1937 16.0278 30.0432 15.8576C29.8927 15.6874 29.7038 15.5555 29.4921 15.4728C26.4845 14.317 21.5 14.3487 21.5 14.3487C21.5 14.3487 16.5156 14.317 13.5079 15.4728C13.2962 15.5554 13.1073 15.6873 12.9568 15.8576C12.8063 16.0278 12.6985 16.2314 12.6424 16.4516C12.4325 17.2577 12.1562 18.8263 12.1562 21.4996Z" stroke="black" stroke-linecap="round" stroke-linejoin="round"/>
</svg>
